# xmcd
#
# Track frame offsets:
#	150
#	22925
#	42535
#	64330
#	83610
#	105335
#	136365
#	160507
#	181160
#	204415
#	228922
#	254807
#	291895
#
# Disc length: 4115 seconds
#
# Revision: 4
# Processed by: cddbd v1.5.2PL0 Copyright (c) Steve Scherf et al.
# Submitted via: EZCDAudioConverter 7.1.8.1
#
DISCID=aa10110d
DTITLE=中島みゆき - 美雪集 II
DYEAR=1994
DGENRE=Japanese Pop
TTITLE0=ローリング [呂方 - 流浪花]
TTITLE1=最愛 [周慧敏 - 最愛]
TTITLE2=雨月の使者 [楊采妮 - 不會哭於你面前] 
TTITLE3=かもめはかもめ [甄妮 - 第二個春天]
TTITLE4=あどけない話 [鄭秀文 - 一錯再錯]
TTITLE5=誕生 [黎明詩 - Remember 無盡至愛]
TTITLE6=鳥になって [蔡立兒 - 絕戀]
TTITLE7=ジェラシー・ジェラシー [陳慧嫻 - Jealousy]
TTITLE8=涙 -Made in tears- [李翊君 - 男人緣]
TTITLE9=浅い眠り[曾航生 - 離去的一剎那]
TTITLE10=慟哭 [葉玉卿 - 喜歡你]
TTITLE11=歌姫 [夏韶聲 - 請給她再醉]
TTITLE12=誘惑
EXTD=
EXTT0=
EXTT1=
EXTT2=
EXTT3=
EXTT4=
EXTT5=
EXTT6=
EXTT7=
EXTT8=
EXTT9=
EXTT10=
EXTT11=
EXTT12=
PLAYORDER=
